{
  "source": "C:\\Users\\Peter\\Desktop\\stuff\\MIUN\\quantitative_research\\video_compression\\videos\\BVI-HD\\PaintingTilting_1920x1080_60fps.mp4",
  "output": "C:\\Users\\Peter\\Desktop\\stuff\\MIUN\\quantitative_research\\video_compression\\compressed_videos\\BVI-HD\\h264\\12\\PaintingTilting_1920x1080_60fps_h264.mp4",
  "codec": "h264",
  "ok": "Input #0, mov,mp4,m4a,3gp,3g2,mj2, from 'C:\\Users\\Peter\\Desktop\\stuff\\MIUN\\quantitative_research\\video_compression\\videos\\BVI-HD\\PaintingTilting_1920x1080_60fps.mp4':\n  Metadata:\n    major_brand     : isom\n    minor_version   : 512\n    compatible_brands: isomiso2avc1mp41\n    encoder         : Lavf54.28.101\n  Duration: 00:00:05.00, start: 0.000000, bitrate: 667707 kb/s\n  Stream #0:0[0x1](und): Video: h264 (High 4:4:4 Predictive) (avc1 / 0x31637661), yuv420p(progressive), 1920x1080, 667702 kb/s, 60 fps, 60 tbr, 60 tbn (default)\n    Metadata:\n      handler_name    : VideoHandler\n      vendor_id       : [0][0][0][0]\n[out#0/mp4 @ 0000020965ff9c40] Codec AVOption b:a (set bitrate (in bits/s)) has not been used for any stream. The most likely reason is either wrong type (e.g. a video option with no video streams) or that it is a private option of some decoder which was not actually used for any stream.\nStream mapping:\n  Stream #0:0 -> #0:0 (h264 (native) -> h264 (libx264))\nPress [q] to stop, [?] for help\n[libx264 @ 0000020966bf0340] using cpu capabilities: MMX2 SSE2Fast SSSE3 SSE4.2 AVX FMA3 BMI2 AVX2\n[libx264 @ 0000020966bf0340] profile High, level 5.0, 4:2:0, 8-bit\n[libx264 @ 0000020966bf0340] 264 - core 165 r3222 b35605a - H.264/MPEG-4 AVC codec - Copyleft 2003-2025 - http://www.videolan.org/x264.html - options: cabac=1 ref=5 deblock=1:0:0 analyse=0x3:0x113 me=hex subme=8 psy=1 psy_rd=1.00:0.00 mixed_ref=1 me_range=16 chroma_me=1 trellis=2 8x8dct=1 cqm=0 deadzone=21,11 fast_pskip=1 chroma_qp_offset=-2 threads=18 lookahead_threads=3 sliced_threads=0 nr=0 decimate=1 interlaced=0 bluray_compat=0 constrained_intra=0 bframes=3 b_pyramid=2 b_adapt=1 b_bias=0 direct=3 weightb=1 open_gop=0 weightp=2 keyint=250 keyint_min=25 scenecut=40 intra_refresh=0 rc_lookahead=50 rc=cbr mbtree=1 bitrate=12000 ratetol=1.0 qcomp=0.60 qpmin=0 qpmax=69 qpstep=4 vbv_maxrate=12000 vbv_bufsize=12000 nal_hrd=none filler=0 ip_ratio=1.40 aq=1:1.00\nOutput #0, mp4, to 'C:\\Users\\Peter\\Desktop\\stuff\\MIUN\\quantitative_research\\video_compression\\compressed_videos\\BVI-HD\\h264\\12\\PaintingTilting_1920x1080_60fps_h264.mp4':\n  Metadata:\n    major_brand     : isom\n    minor_version   : 512\n    compatible_brands: isomiso2avc1mp41\n    encoder         : Lavf62.3.100\n  Stream #0:0(und): Video: h264 (avc1 / 0x31637661), yuv420p(tv, progressive), 1920x1080, q=2-31, 12000 kb/s, 60 fps, 15360 tbn (default)\n    Metadata:\n      encoder         : Lavc62.11.100 libx264\n      handler_name    : VideoHandler\n      vendor_id       : [0][0][0][0]\n    Side data:\n      cpb: bitrate max/min/avg: 12000000/0/12000000 buffer size: 12000000 vbv_delay: N/A\nframe=    0 fps=0.0 q=0.0 size=       0KiB time=N/A bitrate=N/A speed=N/A elapsed=0:00:00.52    \nframe=    0 fps=0.0 q=0.0 size=       0KiB time=N/A bitrate=N/A speed=N/A elapsed=0:00:01.07    \nframe=    0 fps=0.0 q=0.0 size=       0KiB time=N/A bitrate=N/A speed=N/A elapsed=0:00:01.59    \nframe=   25 fps= 12 q=27.0 size=     256KiB time=00:00:00.36 bitrate=5720.5kbits/s speed=0.174x elapsed=0:00:02.11    \nframe=   33 fps= 12 q=28.0 size=     512KiB time=00:00:00.51 bitrate=8118.7kbits/s speed=0.194x elapsed=0:00:02.66    \nframe=   53 fps= 17 q=29.0 size=     768KiB time=00:00:00.85 bitrate=7402.2kbits/s speed=0.267x elapsed=0:00:03.18    \nframe=   73 fps= 20 q=29.0 size=    1024KiB time=00:00:01.18 bitrate=7089.3kbits/s speed=0.32x elapsed=0:00:03.69    \nframe=   97 fps= 23 q=29.0 size=    1536KiB time=00:00:01.58 bitrate=7947.3kbits/s speed=0.372x elapsed=0:00:04.25    \nframe=  119 fps= 25 q=29.0 size=    2048KiB time=00:00:01.91 bitrate=8753.5kbits/s speed= 0.4x elapsed=0:00:04.79    \nframe=  141 fps= 26 q=28.0 size=    2304KiB time=00:00:02.31 bitrate=8147.4kbits/s speed=0.435x elapsed=0:00:05.32    \nframe=  166 fps= 28 q=28.0 size=    2816KiB time=00:00:02.70 bitrate=8544.1kbits/s speed=0.461x elapsed=0:00:05.85    \nframe=  185 fps= 29 q=29.0 size=    3072KiB time=00:00:03.05 bitrate=8251.2kbits/s speed=0.475x elapsed=0:00:06.41    \nframe=  206 fps= 30 q=29.0 size=    3584KiB time=00:00:03.40 bitrate=8635.4kbits/s speed=0.489x elapsed=0:00:06.95    \nframe=  232 fps= 31 q=29.0 size=    4096KiB time=00:00:03.83 bitrate=8753.4kbits/s speed=0.513x elapsed=0:00:07.47    \nframe=  250 fps= 31 q=30.0 size=    4352KiB time=00:00:04.13 bitrate=8625.5kbits/s speed=0.518x elapsed=0:00:07.98    \nframe=  285 fps= 34 q=-1.0 size=    5120KiB time=00:00:04.71 bitrate=8892.6kbits/s speed=0.555x elapsed=0:00:08.50    \n[mp4 @ 0000020966087bc0] Starting second pass: moving the moov atom to the beginning of the file\n[out#0/mp4 @ 0000020965ff9c40] video:5528KiB audio:0KiB subtitle:0KiB other streams:0KiB global headers:0KiB muxing overhead: 0.080117%\nframe=  300 fps= 34 q=-1.0 Lsize=    5532KiB time=00:00:04.96 bitrate=9124.8kbits/s speed=0.567x elapsed=0:00:08.75    \n[libx264 @ 0000020966bf0340] frame I:2     Avg QP:25.25  size:429668\n[libx264 @ 0000020966bf0340] frame P:76    Avg QP:26.85  size: 56807\n[libx264 @ 0000020966bf0340] frame B:222   Avg QP:32.63  size:  2176\n[libx264 @ 0000020966bf0340] consecutive B-frames:  1.3%  0.0%  0.0% 98.7%\n[libx264 @ 0000020966bf0340] mb I  I16..4:  0.0% 96.7%  3.3%\n[libx264 @ 0000020966bf0340] mb P  I16..4:  0.0%  0.6%  0.0%  P16..4: 65.4%  9.0% 13.9%  0.0%  0.0%    skip:11.1%\n[libx264 @ 0000020966bf0340] mb B  I16..4:  0.0%  0.0%  0.0%  B16..8: 22.3%  0.4%  0.5%  direct: 0.4%  skip:76.3%  L0:40.8% L1:58.3% BI: 0.9%\n[libx264 @ 0000020966bf0340] 8x8 transform intra:95.8% inter:68.2%\n[libx264 @ 0000020966bf0340] direct mvs  spatial:95.5% temporal:4.5%\n[libx264 @ 0000020966bf0340] coded y,uvDC,uvAC intra: 98.2% 99.1% 94.2% inter: 10.4% 18.0% 9.0%\n[libx264 @ 0000020966bf0340] i16 v,h,dc,p: 29% 14% 14% 43%\n[libx264 @ 0000020966bf0340] i8 v,h,dc,ddl,ddr,vr,hd,vl,hu: 27% 11% 11%  5%  7%  9%  5% 13% 12%\n[libx264 @ 0000020966bf0340] i4 v,h,dc,ddl,ddr,vr,hd,vl,hu: 22%  7%  4%  6% 12% 14% 10% 12% 11%\n[libx264 @ 0000020966bf0340] i8c dc,h,v,p: 52% 12% 22% 14%\n[libx264 @ 0000020966bf0340] Weighted P-Frames: Y:2.6% UV:0.0%\n[libx264 @ 0000020966bf0340] ref P L0: 27.7% 16.8% 31.0%  7.3% 17.1%  0.1%\n[libx264 @ 0000020966bf0340] ref B L0: 93.0%  4.0%  2.7%  0.2%\n[libx264 @ 0000020966bf0340] ref B L1: 98.5%  1.5%\n[libx264 @ 0000020966bf0340] kb/s:9055.48\n",
  "seconds": 9.157315969467163,
  "probe_out": {}
}